<?xml version="1.0" encoding="UTF-8" standalone="no"?>
<!DOCTYPE svg PUBLIC "-//W3C//DTD SVG 1.1//EN"
 "http://www.w3.org/Graphics/SVG/1.1/DTD/svg11.dtd">
<!-- Generated by graphviz version 2.38.0 (20140413.2041)
 -->
<!-- Title: G Pages: 1 -->
<svg width="1330pt" height="828pt"
 viewBox="0.00 0.00 1330.20 827.70" xmlns="http://www.w3.org/2000/svg" xmlns:xlink="http://www.w3.org/1999/xlink">
<g id="graph0" class="graph" transform="scale(1 1) rotate(0) translate(21.6 806.1)">
<title>G</title>
<polygon fill="#111111" stroke="none" points="-21.6,21.6 -21.6,-806.1 1308.6,-806.1 1308.6,21.6 -21.6,21.6"/>
<!-- javascript/FBO.js -->
<g id="node1" class="node"><title>javascript/FBO.js</title>
<path fill="none" stroke="#c6c5fe" d="M879.833,-449C879.833,-449 771.167,-449 771.167,-449 767.333,-449 763.5,-445.167 763.5,-441.333 763.5,-441.333 763.5,-433.667 763.5,-433.667 763.5,-429.833 767.333,-426 771.167,-426 771.167,-426 879.833,-426 879.833,-426 883.667,-426 887.5,-429.833 887.5,-433.667 887.5,-433.667 887.5,-441.333 887.5,-441.333 887.5,-445.167 883.667,-449 879.833,-449"/>
<text text-anchor="middle" x="825.5" y="-433.8" font-family="Arial" font-size="14.00" fill="#c6c5fe">javascript/FBO.js</text>
</g>
<!-- javascript/blit.js -->
<g id="node2" class="node"><title>javascript/blit.js</title>
<path fill="none" stroke="#cfffac" d="M1076.83,-497C1076.83,-497 980.167,-497 980.167,-497 976.333,-497 972.5,-493.167 972.5,-489.333 972.5,-489.333 972.5,-481.667 972.5,-481.667 972.5,-477.833 976.333,-474 980.167,-474 980.167,-474 1076.83,-474 1076.83,-474 1080.67,-474 1084.5,-477.833 1084.5,-481.667 1084.5,-481.667 1084.5,-489.333 1084.5,-489.333 1084.5,-493.167 1080.67,-497 1076.83,-497"/>
<text text-anchor="middle" x="1028.5" y="-481.8" font-family="Arial" font-size="14.00" fill="#cfffac">javascript/blit.js</text>
</g>
<!-- javascript/FBO.js&#45;&gt;javascript/blit.js -->
<g id="edge1" class="edge"><title>javascript/FBO.js&#45;&gt;javascript/blit.js</title>
<path fill="none" stroke="#757575" d="M875.195,-449.031C888.134,-452.102 902.098,-455.421 915,-458.5 932.72,-462.729 952.005,-467.35 969.523,-471.555"/>
<polygon fill="#757575" stroke="#757575" points="969.066,-475.045 979.607,-473.977 970.701,-468.239 969.066,-475.045"/>
</g>
<!-- javascript/programs.js -->
<g id="node3" class="node"><title>javascript/programs.js</title>
<path fill="none" stroke="#c6c5fe" d="M1098.33,-634C1098.33,-634 958.667,-634 958.667,-634 954.833,-634 951,-630.167 951,-626.333 951,-626.333 951,-618.667 951,-618.667 951,-614.833 954.833,-611 958.667,-611 958.667,-611 1098.33,-611 1098.33,-611 1102.17,-611 1106,-614.833 1106,-618.667 1106,-618.667 1106,-626.333 1106,-626.333 1106,-630.167 1102.17,-634 1098.33,-634"/>
<text text-anchor="middle" x="1028.5" y="-618.8" font-family="Arial" font-size="14.00" fill="#c6c5fe">javascript/programs.js</text>
</g>
<!-- javascript/FBO.js&#45;&gt;javascript/programs.js -->
<g id="edge2" class="edge"><title>javascript/FBO.js&#45;&gt;javascript/programs.js</title>
<path fill="none" stroke="#757575" d="M887.57,-445.715C897.271,-448.743 906.796,-452.872 915,-458.5 922.079,-463.356 986.073,-559.671 1014.26,-602.391"/>
<polygon fill="#757575" stroke="#757575" points="1011.43,-604.449 1019.86,-610.872 1017.27,-600.596 1011.43,-604.449"/>
</g>
<!-- javascript/shaders.js -->
<g id="node13" class="node"><title>javascript/shaders.js</title>
<path fill="none" stroke="#cfffac" d="M1279.33,-634C1279.33,-634 1149.67,-634 1149.67,-634 1145.83,-634 1142,-630.167 1142,-626.333 1142,-626.333 1142,-618.667 1142,-618.667 1142,-614.833 1145.83,-611 1149.67,-611 1149.67,-611 1279.33,-611 1279.33,-611 1283.17,-611 1287,-614.833 1287,-618.667 1287,-618.667 1287,-626.333 1287,-626.333 1287,-630.167 1283.17,-634 1279.33,-634"/>
<text text-anchor="middle" x="1214.5" y="-618.8" font-family="Arial" font-size="14.00" fill="#cfffac">javascript/shaders.js</text>
</g>
<!-- javascript/programs.js&#45;&gt;javascript/shaders.js -->
<g id="edge18" class="edge"><title>javascript/programs.js&#45;&gt;javascript/shaders.js</title>
<path fill="none" stroke="#757575" d="M1106.2,-622.5C1114.61,-622.5 1123.2,-622.5 1131.67,-622.5"/>
<polygon fill="#757575" stroke="#757575" points="1131.93,-626 1141.93,-622.5 1131.93,-619 1131.93,-626"/>
</g>
<!-- javascript/GUI.js -->
<g id="node4" class="node"><title>javascript/GUI.js</title>
<path fill="none" stroke="#c6c5fe" d="M242.833,-272C242.833,-272 139.167,-272 139.167,-272 135.333,-272 131.5,-268.167 131.5,-264.333 131.5,-264.333 131.5,-256.667 131.5,-256.667 131.5,-252.833 135.333,-249 139.167,-249 139.167,-249 242.833,-249 242.833,-249 246.667,-249 250.5,-252.833 250.5,-256.667 250.5,-256.667 250.5,-264.333 250.5,-264.333 250.5,-268.167 246.667,-272 242.833,-272"/>
<text text-anchor="middle" x="191" y="-256.8" font-family="Arial" font-size="14.00" fill="#c6c5fe">javascript/GUI.js</text>
</g>
<!-- javascript/data.js -->
<g id="node5" class="node"><title>javascript/data.js</title>
<path fill="none" stroke="#cfffac" d="M1081.33,-334C1081.33,-334 975.667,-334 975.667,-334 971.833,-334 968,-330.167 968,-326.333 968,-326.333 968,-318.667 968,-318.667 968,-314.833 971.833,-311 975.667,-311 975.667,-311 1081.33,-311 1081.33,-311 1085.17,-311 1089,-314.833 1089,-318.667 1089,-318.667 1089,-326.333 1089,-326.333 1089,-330.167 1085.17,-334 1081.33,-334"/>
<text text-anchor="middle" x="1028.5" y="-318.8" font-family="Arial" font-size="14.00" fill="#cfffac">javascript/data.js</text>
</g>
<!-- javascript/GUI.js&#45;&gt;javascript/data.js -->
<g id="edge3" class="edge"><title>javascript/GUI.js&#45;&gt;javascript/data.js</title>
<path fill="none" stroke="#757575" d="M207.233,-248.973C230.353,-232.267 276.353,-202.062 321,-190.5 576.575,-124.313 676.122,-74.087 915,-186.5 965.787,-210.4 1001.49,-269.727 1017.7,-301.547"/>
<polygon fill="#757575" stroke="#757575" points="1014.71,-303.406 1022.27,-310.832 1020.99,-300.314 1014.71,-303.406"/>
</g>
<!-- javascript/initBuffers.js -->
<g id="node6" class="node"><title>javascript/initBuffers.js</title>
<path fill="none" stroke="#c6c5fe" d="M681.833,-352C681.833,-352 539.167,-352 539.167,-352 535.333,-352 531.5,-348.167 531.5,-344.333 531.5,-344.333 531.5,-336.667 531.5,-336.667 531.5,-332.833 535.333,-329 539.167,-329 539.167,-329 681.833,-329 681.833,-329 685.667,-329 689.5,-332.833 689.5,-336.667 689.5,-336.667 689.5,-344.333 689.5,-344.333 689.5,-348.167 685.667,-352 681.833,-352"/>
<text text-anchor="middle" x="610.5" y="-336.8" font-family="Arial" font-size="14.00" fill="#c6c5fe">javascript/initBuffers.js</text>
</g>
<!-- javascript/GUI.js&#45;&gt;javascript/initBuffers.js -->
<g id="edge4" class="edge"><title>javascript/GUI.js&#45;&gt;javascript/initBuffers.js</title>
<path fill="none" stroke="#757575" d="M250.932,-271.792C326.699,-286.311 458.121,-311.493 539.074,-327.005"/>
<polygon fill="#757575" stroke="#757575" points="538.696,-330.496 549.176,-328.941 540.013,-323.621 538.696,-330.496"/>
</g>
<!-- javascript/materials.js -->
<g id="node7" class="node"><title>javascript/materials.js</title>
<path fill="none" stroke="#c6c5fe" d="M1096.33,-178C1096.33,-178 960.667,-178 960.667,-178 956.833,-178 953,-174.167 953,-170.333 953,-170.333 953,-162.667 953,-162.667 953,-158.833 956.833,-155 960.667,-155 960.667,-155 1096.33,-155 1096.33,-155 1100.17,-155 1104,-158.833 1104,-162.667 1104,-162.667 1104,-170.333 1104,-170.333 1104,-174.167 1100.17,-178 1096.33,-178"/>
<text text-anchor="middle" x="1028.5" y="-162.8" font-family="Arial" font-size="14.00" fill="#c6c5fe">javascript/materials.js</text>
</g>
<!-- javascript/GUI.js&#45;&gt;javascript/materials.js -->
<g id="edge5" class="edge"><title>javascript/GUI.js&#45;&gt;javascript/materials.js</title>
<path fill="none" stroke="#757575" d="M200.792,-248.724C219.716,-224.365 266.994,-168.623 321,-143.5 560.502,-32.0834 656.054,-71.3279 915,-123.5 942.854,-129.112 972.836,-140.882 994.839,-150.692"/>
<polygon fill="#757575" stroke="#757575" points="993.499,-153.927 1004.05,-154.891 996.403,-147.558 993.499,-153.927"/>
</g>
<!-- javascript/screenshot.js -->
<g id="node8" class="node"><title>javascript/screenshot.js</title>
<path fill="none" stroke="#c6c5fe" d="M477.333,-272C477.333,-272 328.667,-272 328.667,-272 324.833,-272 321,-268.167 321,-264.333 321,-264.333 321,-256.667 321,-256.667 321,-252.833 324.833,-249 328.667,-249 328.667,-249 477.333,-249 477.333,-249 481.167,-249 485,-252.833 485,-256.667 485,-256.667 485,-264.333 485,-264.333 485,-268.167 481.167,-272 477.333,-272"/>
<text text-anchor="middle" x="403" y="-256.8" font-family="Arial" font-size="14.00" fill="#c6c5fe">javascript/screenshot.js</text>
</g>
<!-- javascript/GUI.js&#45;&gt;javascript/screenshot.js -->
<g id="edge6" class="edge"><title>javascript/GUI.js&#45;&gt;javascript/screenshot.js</title>
<path fill="none" stroke="#757575" d="M250.776,-260.5C269.356,-260.5 290.35,-260.5 310.65,-260.5"/>
<polygon fill="#757575" stroke="#757575" points="310.865,-264 320.865,-260.5 310.865,-257 310.865,-264"/>
</g>
<!-- javascript/initBuffers.js&#45;&gt;javascript/FBO.js -->
<g id="edge14" class="edge"><title>javascript/initBuffers.js&#45;&gt;javascript/FBO.js</title>
<path fill="none" stroke="#757575" d="M658.145,-352.006C671.861,-355.973 686.737,-360.861 700,-366.5 735.533,-381.608 773.733,-404.487 798.312,-420.166"/>
<polygon fill="#757575" stroke="#757575" points="796.73,-423.311 807.031,-425.791 800.525,-417.429 796.73,-423.311"/>
</g>
<!-- javascript/initBuffers.js&#45;&gt;javascript/data.js -->
<g id="edge15" class="edge"><title>javascript/initBuffers.js&#45;&gt;javascript/data.js</title>
<path fill="none" stroke="#757575" d="M689.746,-337.114C766.849,-333.778 883.556,-328.728 957.624,-325.523"/>
<polygon fill="#757575" stroke="#757575" points="957.944,-329.013 967.783,-325.084 957.641,-322.02 957.944,-329.013"/>
</g>
<!-- javascript/materials.js&#45;&gt;javascript/shaders.js -->
<g id="edge16" class="edge"><title>javascript/materials.js&#45;&gt;javascript/shaders.js</title>
<path fill="none" stroke="#757575" d="M1037.03,-178.117C1051.73,-201.136 1084.65,-254.475 1106,-302.5 1154.33,-411.247 1193.63,-548.808 1207.81,-601.055"/>
<polygon fill="#757575" stroke="#757575" points="1204.47,-602.12 1210.45,-610.868 1211.23,-600.302 1204.47,-602.12"/>
</g>
<!-- javascript/screenshot.js&#45;&gt;javascript/FBO.js -->
<g id="edge23" class="edge"><title>javascript/screenshot.js&#45;&gt;javascript/FBO.js</title>
<path fill="none" stroke="#757575" d="M470.816,-272.047C551.76,-286.346 679.855,-310.085 700,-320.5 746.634,-344.611 788.296,-391.308 809.57,-417.836"/>
<polygon fill="#757575" stroke="#757575" points="807.051,-420.295 815.98,-425.997 812.556,-415.971 807.051,-420.295"/>
</g>
<!-- javascript/render.js -->
<g id="node15" class="node"><title>javascript/render.js</title>
<path fill="none" stroke="#c6c5fe" d="M670.333,-272C670.333,-272 550.667,-272 550.667,-272 546.833,-272 543,-268.167 543,-264.333 543,-264.333 543,-256.667 543,-256.667 543,-252.833 546.833,-249 550.667,-249 550.667,-249 670.333,-249 670.333,-249 674.167,-249 678,-252.833 678,-256.667 678,-256.667 678,-264.333 678,-264.333 678,-268.167 674.167,-272 670.333,-272"/>
<text text-anchor="middle" x="610.5" y="-256.8" font-family="Arial" font-size="14.00" fill="#c6c5fe">javascript/render.js</text>
</g>
<!-- javascript/screenshot.js&#45;&gt;javascript/render.js -->
<g id="edge24" class="edge"><title>javascript/screenshot.js&#45;&gt;javascript/render.js</title>
<path fill="none" stroke="#757575" d="M485.219,-260.5C500.864,-260.5 517.207,-260.5 532.706,-260.5"/>
<polygon fill="#757575" stroke="#757575" points="532.753,-264 542.753,-260.5 532.753,-257 532.753,-264"/>
</g>
<!-- javascript/draw.js -->
<g id="node9" class="node"><title>javascript/draw.js</title>
<path fill="none" stroke="#c6c5fe" d="M879.833,-255C879.833,-255 771.167,-255 771.167,-255 767.333,-255 763.5,-251.167 763.5,-247.333 763.5,-247.333 763.5,-239.667 763.5,-239.667 763.5,-235.833 767.333,-232 771.167,-232 771.167,-232 879.833,-232 879.833,-232 883.667,-232 887.5,-235.833 887.5,-239.667 887.5,-239.667 887.5,-247.333 887.5,-247.333 887.5,-251.167 883.667,-255 879.833,-255"/>
<text text-anchor="middle" x="825.5" y="-239.8" font-family="Arial" font-size="14.00" fill="#c6c5fe">javascript/draw.js</text>
</g>
<!-- javascript/draw.js&#45;&gt;javascript/blit.js -->
<g id="edge7" class="edge"><title>javascript/draw.js&#45;&gt;javascript/blit.js</title>
<path fill="none" stroke="#757575" d="M887.507,-254.099C897.434,-257.795 907.051,-262.779 915,-269.5 942.929,-293.114 934.323,-310.949 951,-343.5 973.289,-387.005 1000.75,-437.204 1015.97,-464.74"/>
<polygon fill="#757575" stroke="#757575" points="1013.08,-466.753 1020.99,-473.805 1019.2,-463.362 1013.08,-466.753"/>
</g>
<!-- javascript/draw.js&#45;&gt;javascript/programs.js -->
<g id="edge10" class="edge"><title>javascript/draw.js&#45;&gt;javascript/programs.js</title>
<path fill="none" stroke="#757575" d="M852.07,-255.165C872.438,-265.833 899.949,-283.591 915,-307.5 962.882,-383.564 917.579,-423.065 951,-506.5 965.809,-543.47 993.331,-580.997 1011.01,-602.989"/>
<polygon fill="#757575" stroke="#757575" points="1008.44,-605.369 1017.48,-610.888 1013.85,-600.934 1008.44,-605.369"/>
</g>
<!-- javascript/draw.js&#45;&gt;javascript/data.js -->
<g id="edge8" class="edge"><title>javascript/draw.js&#45;&gt;javascript/data.js</title>
<path fill="none" stroke="#757575" d="M870.608,-255.006C884.924,-259.125 900.778,-264.098 915,-269.5 943.256,-280.233 974.253,-295.078 996.542,-306.327"/>
<polygon fill="#757575" stroke="#757575" points="995.029,-309.484 1005.53,-310.905 998.207,-303.247 995.029,-309.484"/>
</g>
<!-- javascript/draw.js&#45;&gt;javascript/materials.js -->
<g id="edge9" class="edge"><title>javascript/draw.js&#45;&gt;javascript/materials.js</title>
<path fill="none" stroke="#757575" d="M856.592,-231.972C891.524,-218.59 949.263,-196.471 987.835,-181.695"/>
<polygon fill="#757575" stroke="#757575" points="989.116,-184.952 997.203,-178.106 986.612,-178.415 989.116,-184.952"/>
</g>
<!-- javascript/events.js -->
<g id="node10" class="node"><title>javascript/events.js</title>
<path fill="none" stroke="#c6c5fe" d="M251.333,-392C251.333,-392 130.667,-392 130.667,-392 126.833,-392 123,-388.167 123,-384.333 123,-384.333 123,-376.667 123,-376.667 123,-372.833 126.833,-369 130.667,-369 130.667,-369 251.333,-369 251.333,-369 255.167,-369 259,-372.833 259,-376.667 259,-376.667 259,-384.333 259,-384.333 259,-388.167 255.167,-392 251.333,-392"/>
<text text-anchor="middle" x="191" y="-376.8" font-family="Arial" font-size="14.00" fill="#c6c5fe">javascript/events.js</text>
</g>
<!-- javascript/events.js&#45;&gt;javascript/data.js -->
<g id="edge11" class="edge"><title>javascript/events.js&#45;&gt;javascript/data.js</title>
<path fill="none" stroke="#757575" d="M202.99,-368.9C220.504,-350.366 255.751,-312.866 285,-280.5 301.259,-262.508 299.349,-250.422 321,-239.5 486.264,-156.135 551.065,-212.285 736,-204.5 815.485,-201.154 841.869,-173.181 915,-204.5 961.519,-224.422 997.933,-274.072 1015.67,-302.21"/>
<polygon fill="#757575" stroke="#757575" points="1012.75,-304.148 1020.95,-310.853 1018.72,-300.496 1012.75,-304.148"/>
</g>
<!-- javascript/pointers.js -->
<g id="node11" class="node"><title>javascript/pointers.js</title>
<path fill="none" stroke="#c6c5fe" d="M467.833,-392C467.833,-392 338.167,-392 338.167,-392 334.333,-392 330.5,-388.167 330.5,-384.333 330.5,-384.333 330.5,-376.667 330.5,-376.667 330.5,-372.833 334.333,-369 338.167,-369 338.167,-369 467.833,-369 467.833,-369 471.667,-369 475.5,-372.833 475.5,-376.667 475.5,-376.667 475.5,-384.333 475.5,-384.333 475.5,-388.167 471.667,-392 467.833,-392"/>
<text text-anchor="middle" x="403" y="-376.8" font-family="Arial" font-size="14.00" fill="#c6c5fe">javascript/pointers.js</text>
</g>
<!-- javascript/events.js&#45;&gt;javascript/pointers.js -->
<g id="edge12" class="edge"><title>javascript/events.js&#45;&gt;javascript/pointers.js</title>
<path fill="none" stroke="#757575" d="M259.023,-380.5C278.43,-380.5 299.839,-380.5 320.049,-380.5"/>
<polygon fill="#757575" stroke="#757575" points="320.174,-384 330.174,-380.5 320.174,-377 320.174,-384"/>
</g>
<!-- javascript/update.js -->
<g id="node12" class="node"><title>javascript/update.js</title>
<path fill="none" stroke="#c6c5fe" d="M463.833,-472C463.833,-472 342.167,-472 342.167,-472 338.333,-472 334.5,-468.167 334.5,-464.333 334.5,-464.333 334.5,-456.667 334.5,-456.667 334.5,-452.833 338.333,-449 342.167,-449 342.167,-449 463.833,-449 463.833,-449 467.667,-449 471.5,-452.833 471.5,-456.667 471.5,-456.667 471.5,-464.333 471.5,-464.333 471.5,-468.167 467.667,-472 463.833,-472"/>
<text text-anchor="middle" x="403" y="-456.8" font-family="Arial" font-size="14.00" fill="#c6c5fe">javascript/update.js</text>
</g>
<!-- javascript/events.js&#45;&gt;javascript/update.js -->
<g id="edge13" class="edge"><title>javascript/events.js&#45;&gt;javascript/update.js</title>
<path fill="none" stroke="#757575" d="M222.536,-392.133C259.423,-406.185 321.57,-429.86 362.187,-445.333"/>
<polygon fill="#757575" stroke="#757575" points="361.177,-448.694 371.768,-448.983 363.669,-442.152 361.177,-448.694"/>
</g>
<!-- javascript/updateColors.js -->
<g id="node14" class="node"><title>javascript/updateColors.js</title>
<path fill="none" stroke="#c6c5fe" d="M907.333,-490C907.333,-490 743.667,-490 743.667,-490 739.833,-490 736,-486.167 736,-482.333 736,-482.333 736,-474.667 736,-474.667 736,-470.833 739.833,-467 743.667,-467 743.667,-467 907.333,-467 907.333,-467 911.167,-467 915,-470.833 915,-474.667 915,-474.667 915,-482.333 915,-482.333 915,-486.167 911.167,-490 907.333,-490"/>
<text text-anchor="middle" x="825.5" y="-474.8" font-family="Arial" font-size="14.00" fill="#c6c5fe">javascript/updateColors.js</text>
</g>
<!-- javascript/pointers.js&#45;&gt;javascript/updateColors.js -->
<g id="edge17" class="edge"><title>javascript/pointers.js&#45;&gt;javascript/updateColors.js</title>
<path fill="none" stroke="#757575" d="M467.267,-368.988C530.794,-360.855 629.154,-357.9 700,-400.5 726.001,-416.135 711.286,-440.902 736,-458.5 737.877,-459.836 739.828,-461.085 741.838,-462.252"/>
<polygon fill="#757575" stroke="#757575" points="740.487,-465.49 750.993,-466.863 743.636,-459.239 740.487,-465.49"/>
</g>
<!-- javascript/update.js&#45;&gt;javascript/blit.js -->
<g id="edge29" class="edge"><title>javascript/update.js&#45;&gt;javascript/blit.js</title>
<path fill="none" stroke="#757575" d="M440.745,-472.03C463.594,-478.671 493.72,-486.477 521,-490.5 694.283,-516.055 740.179,-510.336 915,-499.5 930.389,-498.546 946.895,-496.865 962.393,-494.991"/>
<polygon fill="#757575" stroke="#757575" points="962.921,-498.452 972.409,-493.738 962.052,-491.506 962.921,-498.452"/>
</g>
<!-- javascript/update.js&#45;&gt;javascript/programs.js -->
<g id="edge32" class="edge"><title>javascript/update.js&#45;&gt;javascript/programs.js</title>
<path fill="none" stroke="#757575" d="M410.035,-472.146C424.808,-499.338 465.662,-567.01 521,-597.5 663.765,-676.159 864.948,-654.12 965.381,-635.893"/>
<polygon fill="#757575" stroke="#757575" points="966.176,-639.306 975.366,-634.033 964.894,-632.424 966.176,-639.306"/>
</g>
<!-- javascript/update.js&#45;&gt;javascript/data.js -->
<g id="edge30" class="edge"><title>javascript/update.js&#45;&gt;javascript/data.js</title>
<path fill="none" stroke="#757575" d="M471.748,-465.952C533.02,-468.617 624.876,-466.901 700,-441.5 718.216,-435.341 718.698,-425.891 736,-417.5 813.238,-380.044 908.846,-352.079 969.026,-336.511"/>
<polygon fill="#757575" stroke="#757575" points="969.917,-339.896 978.738,-334.027 968.183,-333.114 969.917,-339.896"/>
</g>
<!-- javascript/update.js&#45;&gt;javascript/initBuffers.js -->
<g id="edge31" class="edge"><title>javascript/update.js&#45;&gt;javascript/initBuffers.js</title>
<path fill="none" stroke="#757575" d="M423.704,-448.994C460.205,-427.68 538.467,-381.979 580.837,-357.237"/>
<polygon fill="#757575" stroke="#757575" points="582.683,-360.213 589.554,-352.148 579.153,-354.168 582.683,-360.213"/>
</g>
<!-- javascript/update.js&#45;&gt;javascript/updateColors.js -->
<g id="edge36" class="edge"><title>javascript/update.js&#45;&gt;javascript/updateColors.js</title>
<path fill="none" stroke="#757575" d="M471.633,-469.827C487.778,-471.712 504.976,-473.439 521,-474.5 589.22,-479.018 666.247,-479.984 725.632,-479.838"/>
<polygon fill="#757575" stroke="#757575" points="725.768,-483.338 735.756,-479.802 725.743,-476.338 725.768,-483.338"/>
</g>
<!-- javascript/update.js&#45;&gt;javascript/render.js -->
<g id="edge33" class="edge"><title>javascript/update.js&#45;&gt;javascript/render.js</title>
<path fill="none" stroke="#757575" d="M425.724,-448.97C443.606,-438.564 468.596,-421.796 485,-401.5 509.764,-370.861 495.723,-350.717 521,-320.5 536.182,-302.352 558.185,-287.401 576.454,-276.963"/>
<polygon fill="#757575" stroke="#757575" points="578.273,-279.956 585.343,-272.065 574.895,-273.826 578.273,-279.956"/>
</g>
<!-- javascript/resizeCanvas.js -->
<g id="node16" class="node"><title>javascript/resizeCanvas.js</title>
<path fill="none" stroke="#cfffac" d="M692.333,-432C692.333,-432 528.667,-432 528.667,-432 524.833,-432 521,-428.167 521,-424.333 521,-424.333 521,-416.667 521,-416.667 521,-412.833 524.833,-409 528.667,-409 528.667,-409 692.333,-409 692.333,-409 696.167,-409 700,-412.833 700,-416.667 700,-416.667 700,-424.333 700,-424.333 700,-428.167 696.167,-432 692.333,-432"/>
<text text-anchor="middle" x="610.5" y="-416.8" font-family="Arial" font-size="14.00" fill="#cfffac">javascript/resizeCanvas.js</text>
</g>
<!-- javascript/update.js&#45;&gt;javascript/resizeCanvas.js -->
<g id="edge34" class="edge"><title>javascript/update.js&#45;&gt;javascript/resizeCanvas.js</title>
<path fill="none" stroke="#757575" d="M463.163,-448.984C487.344,-444.277 515.477,-438.801 540.579,-433.915"/>
<polygon fill="#757575" stroke="#757575" points="541.251,-437.35 550.398,-432.004 539.914,-430.479 541.251,-437.35"/>
</g>
<!-- javascript/splats.js -->
<g id="node17" class="node"><title>javascript/splats.js</title>
<path fill="none" stroke="#c6c5fe" d="M668.333,-588C668.333,-588 552.667,-588 552.667,-588 548.833,-588 545,-584.167 545,-580.333 545,-580.333 545,-572.667 545,-572.667 545,-568.833 548.833,-565 552.667,-565 552.667,-565 668.333,-565 668.333,-565 672.167,-565 676,-568.833 676,-572.667 676,-572.667 676,-580.333 676,-580.333 676,-584.167 672.167,-588 668.333,-588"/>
<text text-anchor="middle" x="610.5" y="-572.8" font-family="Arial" font-size="14.00" fill="#c6c5fe">javascript/splats.js</text>
</g>
<!-- javascript/update.js&#45;&gt;javascript/splats.js -->
<g id="edge35" class="edge"><title>javascript/update.js&#45;&gt;javascript/splats.js</title>
<path fill="none" stroke="#757575" d="M418.424,-472.076C447.171,-495.074 509.809,-544.805 521,-550.5 529.58,-554.866 539.011,-558.616 548.42,-561.797"/>
<polygon fill="#757575" stroke="#757575" points="547.589,-565.206 558.18,-564.909 549.716,-558.537 547.589,-565.206"/>
</g>
<!-- javascript/updateColors.js&#45;&gt;javascript/data.js -->
<g id="edge37" class="edge"><title>javascript/updateColors.js&#45;&gt;javascript/data.js</title>
<path fill="none" stroke="#757575" d="M897.728,-466.857C903.78,-464.555 909.632,-461.799 915,-458.5 962.352,-429.405 999.077,-373.272 1016.46,-343.017"/>
<polygon fill="#757575" stroke="#757575" points="1019.59,-344.605 1021.42,-334.17 1013.48,-341.185 1019.59,-344.605"/>
</g>
<!-- javascript/render.js&#45;&gt;javascript/blit.js -->
<g id="edge19" class="edge"><title>javascript/render.js&#45;&gt;javascript/blit.js</title>
<path fill="none" stroke="#757575" d="M678.069,-264.41C755.342,-270.039 877.045,-282.611 915,-307.5 945.142,-327.265 995.598,-422.194 1017.19,-464.765"/>
<polygon fill="#757575" stroke="#757575" points="1014.18,-466.568 1021.8,-473.928 1020.43,-463.422 1014.18,-466.568"/>
</g>
<!-- javascript/render.js&#45;&gt;javascript/programs.js -->
<g id="edge22" class="edge"><title>javascript/render.js&#45;&gt;javascript/programs.js</title>
<path fill="none" stroke="#757575" d="M678.127,-270.982C685.643,-273.062 693.079,-275.543 700,-278.5 717.913,-286.154 719.782,-292.71 736,-303.5 814.529,-355.743 854.669,-345 915,-417.5 942.293,-450.298 931.157,-468.726 951,-506.5 969.62,-541.945 996.251,-580.187 1012.68,-602.702"/>
<polygon fill="#757575" stroke="#757575" points="1009.89,-604.817 1018.64,-610.793 1015.53,-600.666 1009.89,-604.817"/>
</g>
<!-- javascript/render.js&#45;&gt;javascript/data.js -->
<g id="edge20" class="edge"><title>javascript/render.js&#45;&gt;javascript/data.js</title>
<path fill="none" stroke="#757575" d="M638.081,-248.954C692.135,-227.223 817.962,-185.606 915,-222.5 957.204,-238.546 993.685,-278.485 1012.94,-302.755"/>
<polygon fill="#757575" stroke="#757575" points="1010.36,-305.135 1019.24,-310.915 1015.9,-300.859 1010.36,-305.135"/>
</g>
<!-- javascript/render.js&#45;&gt;javascript/draw.js -->
<g id="edge21" class="edge"><title>javascript/render.js&#45;&gt;javascript/draw.js</title>
<path fill="none" stroke="#757575" d="M678.018,-255.191C701.836,-253.29 728.775,-251.14 752.996,-249.207"/>
<polygon fill="#757575" stroke="#757575" points="753.504,-252.678 763.194,-248.393 752.947,-245.7 753.504,-252.678"/>
</g>
<!-- javascript/splats.js&#45;&gt;javascript/blit.js -->
<g id="edge25" class="edge"><title>javascript/splats.js&#45;&gt;javascript/blit.js</title>
<path fill="none" stroke="#757575" d="M676.285,-586.516C739.149,-593.649 836.317,-597.751 915,-570.5 953.561,-557.145 989.606,-525.14 1010.06,-504.437"/>
<polygon fill="#757575" stroke="#757575" points="1012.69,-506.749 1017.11,-497.118 1007.65,-501.893 1012.69,-506.749"/>
</g>
<!-- javascript/splats.js&#45;&gt;javascript/programs.js -->
<g id="edge27" class="edge"><title>javascript/splats.js&#45;&gt;javascript/programs.js</title>
<path fill="none" stroke="#757575" d="M648.139,-588.016C672.727,-595.223 705.989,-603.971 736,-608.5 804.292,-618.806 882.507,-622.106 940.713,-622.939"/>
<polygon fill="#757575" stroke="#757575" points="940.933,-626.442 950.975,-623.064 941.018,-619.443 940.933,-626.442"/>
</g>
<!-- javascript/splats.js&#45;&gt;javascript/data.js -->
<g id="edge26" class="edge"><title>javascript/splats.js&#45;&gt;javascript/data.js</title>
<path fill="none" stroke="#757575" d="M676.27,-573.786C742.024,-568.096 843.993,-550.897 915,-499.5 943.944,-478.549 994.632,-385.687 1016.71,-343.492"/>
<polygon fill="#757575" stroke="#757575" points="1019.94,-344.871 1021.44,-334.383 1013.73,-341.643 1019.94,-344.871"/>
</g>
<!-- javascript/splats.js&#45;&gt;javascript/updateColors.js -->
<g id="edge28" class="edge"><title>javascript/splats.js&#45;&gt;javascript/updateColors.js</title>
<path fill="none" stroke="#757575" d="M628.543,-564.874C651.911,-549.354 695.611,-521.817 736,-504.5 746.029,-500.2 756.989,-496.347 767.674,-493.008"/>
<polygon fill="#757575" stroke="#757575" points="768.809,-496.322 777.375,-490.088 766.791,-489.619 768.809,-496.322"/>
</g>
<!-- javascript/webGLContext.js -->
<g id="node18" class="node"><title>javascript/webGLContext.js</title>
<path fill="none" stroke="#cfffac" d="M277.333,-23C277.333,-23 104.667,-23 104.667,-23 100.833,-23 97,-19.1667 97,-15.3333 97,-15.3333 97,-7.66667 97,-7.66667 97,-3.83333 100.833,-0 104.667,-0 104.667,-0 277.333,-0 277.333,-0 281.167,-0 285,-3.83333 285,-7.66667 285,-7.66667 285,-15.3333 285,-15.3333 285,-19.1667 281.167,-23 277.333,-23"/>
<text text-anchor="middle" x="191" y="-7.8" font-family="Arial" font-size="14.00" fill="#cfffac">javascript/webGLContext.js</text>
</g>
<!-- main.js -->
<g id="node19" class="node"><title>main.js</title>
<path fill="none" stroke="#c6c5fe" d="M53.3333,-432C53.3333,-432 7.66667,-432 7.66667,-432 3.83333,-432 3.55271e-015,-428.167 3.55271e-015,-424.333 3.55271e-015,-424.333 3.55271e-015,-416.667 3.55271e-015,-416.667 3.55271e-015,-412.833 3.83333,-409 7.66667,-409 7.66667,-409 53.3333,-409 53.3333,-409 57.1667,-409 61,-412.833 61,-416.667 61,-416.667 61,-424.333 61,-424.333 61,-428.167 57.1667,-432 53.3333,-432"/>
<text text-anchor="middle" x="30.5" y="-416.8" font-family="Arial" font-size="14.00" fill="#c6c5fe">main.js</text>
</g>
<!-- main.js&#45;&gt;javascript/blit.js -->
<g id="edge39" class="edge"><title>main.js&#45;&gt;javascript/blit.js</title>
<path fill="none" stroke="#757575" d="M37.6631,-432.03C47.6842,-449.625 69.2166,-482.975 97,-500.5 260.502,-603.635 328.722,-577.529 521,-597.5 695.179,-615.592 753.152,-661.365 915,-594.5 959.068,-576.294 995.542,-531.899 1014.15,-505.727"/>
<polygon fill="#757575" stroke="#757575" points="1017.17,-507.519 1019.98,-497.302 1011.41,-503.539 1017.17,-507.519"/>
</g>
<!-- main.js&#45;&gt;javascript/programs.js -->
<g id="edge43" class="edge"><title>main.js&#45;&gt;javascript/programs.js</title>
<path fill="none" stroke="#757575" d="M34.9635,-432.331C42.6783,-457.06 63.2991,-515.027 97,-552.5 204.428,-671.953 241.346,-746.5 402,-746.5 402,-746.5 402,-746.5 611.5,-746.5 760.547,-746.5 927.585,-672.492 995.859,-638.826"/>
<polygon fill="#757575" stroke="#757575" points="997.816,-641.762 1005.2,-634.166 994.691,-635.498 997.816,-641.762"/>
</g>
<!-- main.js&#45;&gt;javascript/GUI.js -->
<g id="edge38" class="edge"><title>main.js&#45;&gt;javascript/GUI.js</title>
<path fill="none" stroke="#757575" d="M37.8417,-408.849C48.4232,-390.085 71.0924,-352.632 97,-326.5 116.133,-307.201 141.485,-289.623 160.887,-277.469"/>
<polygon fill="#757575" stroke="#757575" points="162.916,-280.331 169.608,-272.118 159.254,-274.364 162.916,-280.331"/>
</g>
<!-- main.js&#45;&gt;javascript/initBuffers.js -->
<g id="edge41" class="edge"><title>main.js&#45;&gt;javascript/initBuffers.js</title>
<path fill="none" stroke="#757575" d="M40.1053,-408.619C51.3345,-394.208 72.4701,-370.592 97,-360.5 241.643,-300.993 429.073,-313.73 532.479,-327.588"/>
<polygon fill="#757575" stroke="#757575" points="532.14,-331.074 542.524,-328.973 533.096,-324.14 532.14,-331.074"/>
</g>
<!-- main.js&#45;&gt;javascript/materials.js -->
<g id="edge42" class="edge"><title>main.js&#45;&gt;javascript/materials.js</title>
<path fill="none" stroke="#757575" d="M33.2405,-408.746C38.2737,-378.079 55.2371,-294.226 97,-239.5 193.603,-112.912 242.762,-51.5 402,-51.5 402,-51.5 402,-51.5 611.5,-51.5 747.137,-51.5 788.559,-34.4086 915,-83.5 952.317,-97.9886 988.246,-128.259 1009.09,-147.962"/>
<polygon fill="#757575" stroke="#757575" points="1006.68,-150.508 1016.31,-154.942 1011.55,-145.475 1006.68,-150.508"/>
</g>
<!-- main.js&#45;&gt;javascript/events.js -->
<g id="edge40" class="edge"><title>main.js&#45;&gt;javascript/events.js</title>
<path fill="none" stroke="#757575" d="M61.3126,-412.976C81.8836,-407.785 109.854,-400.726 134.463,-394.516"/>
<polygon fill="#757575" stroke="#757575" points="135.576,-397.844 144.416,-392.004 133.864,-391.057 135.576,-397.844"/>
</g>
<!-- main.js&#45;&gt;javascript/update.js -->
<g id="edge47" class="edge"><title>main.js&#45;&gt;javascript/update.js</title>
<path fill="none" stroke="#757575" d="M61.0281,-427.635C72.2364,-430.125 85.1534,-432.736 97,-434.5 173.929,-445.954 262.582,-452.809 324.411,-456.58"/>
<polygon fill="#757575" stroke="#757575" points="324.29,-460.079 334.481,-457.182 324.707,-453.092 324.29,-460.079"/>
</g>
<!-- main.js&#45;&gt;javascript/shaders.js -->
<g id="edge45" class="edge"><title>main.js&#45;&gt;javascript/shaders.js</title>
<path fill="none" stroke="#757575" d="M31.5298,-432.194C32.2344,-469.096 39.187,-584.643 97,-652.5 192.791,-764.933 254.294,-784.5 402,-784.5 402,-784.5 402,-784.5 826.5,-784.5 974.76,-784.5 1131.92,-682.081 1190.09,-640.114"/>
<polygon fill="#757575" stroke="#757575" points="1192.24,-642.876 1198.25,-634.151 1188.12,-637.224 1192.24,-642.876"/>
</g>
<!-- main.js&#45;&gt;javascript/resizeCanvas.js -->
<g id="edge44" class="edge"><title>main.js&#45;&gt;javascript/resizeCanvas.js</title>
<path fill="none" stroke="#757575" d="M61.3587,-420.5C143.593,-420.5 376.162,-420.5 510.466,-420.5"/>
<polygon fill="#757575" stroke="#757575" points="510.759,-424 520.759,-420.5 510.759,-417 510.759,-424"/>
</g>
<!-- main.js&#45;&gt;javascript/splats.js -->
<g id="edge46" class="edge"><title>main.js&#45;&gt;javascript/splats.js</title>
<path fill="none" stroke="#757575" d="M48.8887,-432.148C61.7117,-440.275 79.8389,-450.821 97,-457.5 246.779,-515.796 432.78,-550.173 534.451,-565.972"/>
<polygon fill="#757575" stroke="#757575" points="534.207,-569.475 544.623,-567.534 535.27,-562.556 534.207,-569.475"/>
</g>
<!-- main.js&#45;&gt;javascript/webGLContext.js -->
<g id="edge48" class="edge"><title>main.js&#45;&gt;javascript/webGLContext.js</title>
<path fill="none" stroke="#757575" d="M31.8707,-408.675C33.9348,-350.392 45.8384,-94.2357 97,-37.5 100.266,-33.8777 103.992,-30.7429 108.029,-28.0317"/>
<polygon fill="#757575" stroke="#757575" points="109.784,-31.0599 116.708,-23.0407 106.294,-24.9918 109.784,-31.0599"/>
</g>
</g>
</svg>
