<?xml version="1.0" encoding="UTF-8" standalone="no"?>
<!DOCTYPE svg PUBLIC "-//W3C//DTD SVG 1.1//EN"
 "http://www.w3.org/Graphics/SVG/1.1/DTD/svg11.dtd">
<!-- Generated by graphviz version 2.38.0 (20140413.2041)
 -->
<!-- Title: G Pages: 1 -->
<svg width="1538pt" height="835pt"
 viewBox="0.00 0.00 1538.20 834.70" xmlns="http://www.w3.org/2000/svg" xmlns:xlink="http://www.w3.org/1999/xlink">
<g id="graph0" class="graph" transform="scale(1 1) rotate(0) translate(21.6 813.1)">
<title>G</title>
<polygon fill="#111111" stroke="none" points="-21.6,21.6 -21.6,-813.1 1516.6,-813.1 1516.6,21.6 -21.6,21.6"/>
<!-- javascript/FBO.js -->
<g id="node1" class="node"><title>javascript/FBO.js</title>
<path fill="none" stroke="#c6c5fe" d="M890.333,-565C890.333,-565 781.667,-565 781.667,-565 777.833,-565 774,-561.167 774,-557.333 774,-557.333 774,-549.667 774,-549.667 774,-545.833 777.833,-542 781.667,-542 781.667,-542 890.333,-542 890.333,-542 894.167,-542 898,-545.833 898,-549.667 898,-549.667 898,-557.333 898,-557.333 898,-561.167 894.167,-565 890.333,-565"/>
<text text-anchor="middle" x="836" y="-549.8" font-family="Arial" font-size="14.00" fill="#c6c5fe">javascript/FBO.js</text>
</g>
<!-- javascript/blit.js -->
<g id="node2" class="node"><title>javascript/blit.js</title>
<path fill="none" stroke="#cfffac" d="M1095.83,-605C1095.83,-605 999.167,-605 999.167,-605 995.333,-605 991.5,-601.167 991.5,-597.333 991.5,-597.333 991.5,-589.667 991.5,-589.667 991.5,-585.833 995.333,-582 999.167,-582 999.167,-582 1095.83,-582 1095.83,-582 1099.67,-582 1103.5,-585.833 1103.5,-589.667 1103.5,-589.667 1103.5,-597.333 1103.5,-597.333 1103.5,-601.167 1099.67,-605 1095.83,-605"/>
<text text-anchor="middle" x="1047.5" y="-589.8" font-family="Arial" font-size="14.00" fill="#cfffac">javascript/blit.js</text>
</g>
<!-- javascript/FBO.js&#45;&gt;javascript/blit.js -->
<g id="edge1" class="edge"><title>javascript/FBO.js&#45;&gt;javascript/blit.js</title>
<path fill="none" stroke="#757575" d="M897.315,-565.016C923.576,-570.03 954.41,-575.917 981.209,-581.034"/>
<polygon fill="#757575" stroke="#757575" points="980.785,-584.516 991.264,-582.954 982.098,-577.64 980.785,-584.516"/>
</g>
<!-- javascript/programs.js -->
<g id="node3" class="node"><title>javascript/programs.js</title>
<path fill="none" stroke="#c6c5fe" d="M1306.33,-565C1306.33,-565 1166.67,-565 1166.67,-565 1162.83,-565 1159,-561.167 1159,-557.333 1159,-557.333 1159,-549.667 1159,-549.667 1159,-545.833 1162.83,-542 1166.67,-542 1166.67,-542 1306.33,-542 1306.33,-542 1310.17,-542 1314,-545.833 1314,-549.667 1314,-549.667 1314,-557.333 1314,-557.333 1314,-561.167 1310.17,-565 1306.33,-565"/>
<text text-anchor="middle" x="1236.5" y="-549.8" font-family="Arial" font-size="14.00" fill="#c6c5fe">javascript/programs.js</text>
</g>
<!-- javascript/FBO.js&#45;&gt;javascript/programs.js -->
<g id="edge2" class="edge"><title>javascript/FBO.js&#45;&gt;javascript/programs.js</title>
<path fill="none" stroke="#757575" d="M898.392,-553.5C965.222,-553.5 1072.64,-553.5 1148.22,-553.5"/>
<polygon fill="#757575" stroke="#757575" points="1148.67,-557 1158.67,-553.5 1148.67,-550 1148.67,-557"/>
</g>
<!-- javascript/shaders.js -->
<g id="node14" class="node"><title>javascript/shaders.js</title>
<path fill="none" stroke="#cfffac" d="M1487.33,-565C1487.33,-565 1357.67,-565 1357.67,-565 1353.83,-565 1350,-561.167 1350,-557.333 1350,-557.333 1350,-549.667 1350,-549.667 1350,-545.833 1353.83,-542 1357.67,-542 1357.67,-542 1487.33,-542 1487.33,-542 1491.17,-542 1495,-545.833 1495,-549.667 1495,-549.667 1495,-557.333 1495,-557.333 1495,-561.167 1491.17,-565 1487.33,-565"/>
<text text-anchor="middle" x="1422.5" y="-549.8" font-family="Arial" font-size="14.00" fill="#cfffac">javascript/shaders.js</text>
</g>
<!-- javascript/programs.js&#45;&gt;javascript/shaders.js -->
<g id="edge19" class="edge"><title>javascript/programs.js&#45;&gt;javascript/shaders.js</title>
<path fill="none" stroke="#757575" d="M1314.2,-553.5C1322.61,-553.5 1331.2,-553.5 1339.67,-553.5"/>
<polygon fill="#757575" stroke="#757575" points="1339.93,-557 1349.93,-553.5 1339.93,-550 1339.93,-557"/>
</g>
<!-- javascript/GUI.js -->
<g id="node4" class="node"><title>javascript/GUI.js</title>
<path fill="none" stroke="#c6c5fe" d="M242.833,-487C242.833,-487 139.167,-487 139.167,-487 135.333,-487 131.5,-483.167 131.5,-479.333 131.5,-479.333 131.5,-471.667 131.5,-471.667 131.5,-467.833 135.333,-464 139.167,-464 139.167,-464 242.833,-464 242.833,-464 246.667,-464 250.5,-467.833 250.5,-471.667 250.5,-471.667 250.5,-479.333 250.5,-479.333 250.5,-483.167 246.667,-487 242.833,-487"/>
<text text-anchor="middle" x="191" y="-471.8" font-family="Arial" font-size="14.00" fill="#c6c5fe">javascript/GUI.js</text>
</g>
<!-- javascript/data.js -->
<g id="node5" class="node"><title>javascript/data.js</title>
<path fill="none" stroke="#cfffac" d="M1100.33,-411C1100.33,-411 994.667,-411 994.667,-411 990.833,-411 987,-407.167 987,-403.333 987,-403.333 987,-395.667 987,-395.667 987,-391.833 990.833,-388 994.667,-388 994.667,-388 1100.33,-388 1100.33,-388 1104.17,-388 1108,-391.833 1108,-395.667 1108,-395.667 1108,-403.333 1108,-403.333 1108,-407.167 1104.17,-411 1100.33,-411"/>
<text text-anchor="middle" x="1047.5" y="-395.8" font-family="Arial" font-size="14.00" fill="#cfffac">javascript/data.js</text>
</g>
<!-- javascript/GUI.js&#45;&gt;javascript/data.js -->
<g id="edge3" class="edge"><title>javascript/GUI.js&#45;&gt;javascript/data.js</title>
<path fill="none" stroke="#757575" d="M250.7,-474.551C376.826,-471.822 682.786,-461.502 936,-423.5 953.689,-420.845 972.785,-417.04 990.045,-413.239"/>
<polygon fill="#757575" stroke="#757575" points="990.98,-416.616 999.971,-411.011 989.447,-409.786 990.98,-416.616"/>
</g>
<!-- javascript/initBuffers.js -->
<g id="node6" class="node"><title>javascript/initBuffers.js</title>
<path fill="none" stroke="#c6c5fe" d="M681.833,-431C681.833,-431 539.167,-431 539.167,-431 535.333,-431 531.5,-427.167 531.5,-423.333 531.5,-423.333 531.5,-415.667 531.5,-415.667 531.5,-411.833 535.333,-408 539.167,-408 539.167,-408 681.833,-408 681.833,-408 685.667,-408 689.5,-411.833 689.5,-415.667 689.5,-415.667 689.5,-423.333 689.5,-423.333 689.5,-427.167 685.667,-431 681.833,-431"/>
<text text-anchor="middle" x="610.5" y="-415.8" font-family="Arial" font-size="14.00" fill="#c6c5fe">javascript/initBuffers.js</text>
</g>
<!-- javascript/GUI.js&#45;&gt;javascript/initBuffers.js -->
<g id="edge4" class="edge"><title>javascript/GUI.js&#45;&gt;javascript/initBuffers.js</title>
<path fill="none" stroke="#757575" d="M250.932,-467.595C321.311,-458.155 439.708,-442.274 521.073,-431.361"/>
<polygon fill="#757575" stroke="#757575" points="521.858,-434.787 531.303,-429.989 520.927,-427.849 521.858,-434.787"/>
</g>
<!-- javascript/screenshot.js -->
<g id="node7" class="node"><title>javascript/screenshot.js</title>
<path fill="none" stroke="#c6c5fe" d="M477.333,-565C477.333,-565 328.667,-565 328.667,-565 324.833,-565 321,-561.167 321,-557.333 321,-557.333 321,-549.667 321,-549.667 321,-545.833 324.833,-542 328.667,-542 328.667,-542 477.333,-542 477.333,-542 481.167,-542 485,-545.833 485,-549.667 485,-549.667 485,-557.333 485,-557.333 485,-561.167 481.167,-565 477.333,-565"/>
<text text-anchor="middle" x="403" y="-549.8" font-family="Arial" font-size="14.00" fill="#c6c5fe">javascript/screenshot.js</text>
</g>
<!-- javascript/GUI.js&#45;&gt;javascript/screenshot.js -->
<g id="edge5" class="edge"><title>javascript/GUI.js&#45;&gt;javascript/screenshot.js</title>
<path fill="none" stroke="#757575" d="M222.986,-487.009C259.666,-500.633 320.863,-523.363 361.326,-538.393"/>
<polygon fill="#757575" stroke="#757575" points="360.294,-541.743 370.887,-541.944 362.731,-535.181 360.294,-541.743"/>
</g>
<!-- javascript/updateKeywords.js -->
<g id="node8" class="node"><title>javascript/updateKeywords.js</title>
<path fill="none" stroke="#c6c5fe" d="M928.333,-763C928.333,-763 743.667,-763 743.667,-763 739.833,-763 736,-759.167 736,-755.333 736,-755.333 736,-747.667 736,-747.667 736,-743.833 739.833,-740 743.667,-740 743.667,-740 928.333,-740 928.333,-740 932.167,-740 936,-743.833 936,-747.667 936,-747.667 936,-755.333 936,-755.333 936,-759.167 932.167,-763 928.333,-763"/>
<text text-anchor="middle" x="836" y="-747.8" font-family="Arial" font-size="14.00" fill="#c6c5fe">javascript/updateKeywords.js</text>
</g>
<!-- javascript/GUI.js&#45;&gt;javascript/updateKeywords.js -->
<g id="edge6" class="edge"><title>javascript/GUI.js&#45;&gt;javascript/updateKeywords.js</title>
<path fill="none" stroke="#757575" d="M204.742,-487.036C227.014,-506.758 275.041,-547.354 321,-573.5 472.174,-659.504 671.867,-713.89 772.021,-737.637"/>
<polygon fill="#757575" stroke="#757575" points="771.447,-741.097 781.982,-739.976 773.047,-734.283 771.447,-741.097"/>
</g>
<!-- javascript/initBuffers.js&#45;&gt;javascript/FBO.js -->
<g id="edge14" class="edge"><title>javascript/initBuffers.js&#45;&gt;javascript/FBO.js</title>
<path fill="none" stroke="#757575" d="M630.943,-431.157C670.587,-454.926 760.889,-509.067 806.911,-536.659"/>
<polygon fill="#757575" stroke="#757575" points="805.385,-539.825 815.761,-541.965 808.984,-533.821 805.385,-539.825"/>
</g>
<!-- javascript/initBuffers.js&#45;&gt;javascript/data.js -->
<g id="edge15" class="edge"><title>javascript/initBuffers.js&#45;&gt;javascript/data.js</title>
<path fill="none" stroke="#757575" d="M689.52,-415.913C771.182,-412.158 898.217,-406.318 976.674,-402.71"/>
<polygon fill="#757575" stroke="#757575" points="977.111,-406.194 986.939,-402.238 976.789,-399.201 977.111,-406.194"/>
</g>
<!-- javascript/screenshot.js&#45;&gt;javascript/FBO.js -->
<g id="edge24" class="edge"><title>javascript/screenshot.js&#45;&gt;javascript/FBO.js</title>
<path fill="none" stroke="#757575" d="M485.068,-553.5C565.347,-553.5 687.068,-553.5 763.744,-553.5"/>
<polygon fill="#757575" stroke="#757575" points="763.792,-557 773.792,-553.5 763.792,-550 763.792,-557"/>
</g>
<!-- javascript/render.js -->
<g id="node16" class="node"><title>javascript/render.js</title>
<path fill="none" stroke="#c6c5fe" d="M670.333,-645C670.333,-645 550.667,-645 550.667,-645 546.833,-645 543,-641.167 543,-637.333 543,-637.333 543,-629.667 543,-629.667 543,-625.833 546.833,-622 550.667,-622 550.667,-622 670.333,-622 670.333,-622 674.167,-622 678,-625.833 678,-629.667 678,-629.667 678,-637.333 678,-637.333 678,-641.167 674.167,-645 670.333,-645"/>
<text text-anchor="middle" x="610.5" y="-629.8" font-family="Arial" font-size="14.00" fill="#c6c5fe">javascript/render.js</text>
</g>
<!-- javascript/screenshot.js&#45;&gt;javascript/render.js -->
<g id="edge25" class="edge"><title>javascript/screenshot.js&#45;&gt;javascript/render.js</title>
<path fill="none" stroke="#757575" d="M426.447,-565.061C449.696,-576.748 487.279,-594.843 521,-607.5 532.016,-611.635 543.999,-615.538 555.486,-619.002"/>
<polygon fill="#757575" stroke="#757575" points="554.836,-622.459 565.417,-621.928 556.814,-615.744 554.836,-622.459"/>
</g>
<!-- javascript/updateKeywords.js&#45;&gt;javascript/data.js -->
<g id="edge39" class="edge"><title>javascript/updateKeywords.js&#45;&gt;javascript/data.js</title>
<path fill="none" stroke="#757575" d="M868.481,-739.946C890.379,-730.384 918.649,-714.745 936,-692.5 970.245,-648.594 952.957,-624.824 972,-572.5 992.385,-516.489 1021.51,-452.535 1036.59,-420.345"/>
<polygon fill="#757575" stroke="#757575" points="1039.87,-421.597 1040.97,-411.06 1033.54,-418.614 1039.87,-421.597"/>
</g>
<!-- javascript/materials.js -->
<g id="node10" class="node"><title>javascript/materials.js</title>
<path fill="none" stroke="#c6c5fe" d="M1115.33,-763C1115.33,-763 979.667,-763 979.667,-763 975.833,-763 972,-759.167 972,-755.333 972,-755.333 972,-747.667 972,-747.667 972,-743.833 975.833,-740 979.667,-740 979.667,-740 1115.33,-740 1115.33,-740 1119.17,-740 1123,-743.833 1123,-747.667 1123,-747.667 1123,-755.333 1123,-755.333 1123,-759.167 1119.17,-763 1115.33,-763"/>
<text text-anchor="middle" x="1047.5" y="-747.8" font-family="Arial" font-size="14.00" fill="#c6c5fe">javascript/materials.js</text>
</g>
<!-- javascript/updateKeywords.js&#45;&gt;javascript/materials.js -->
<g id="edge40" class="edge"><title>javascript/updateKeywords.js&#45;&gt;javascript/materials.js</title>
<path fill="none" stroke="#757575" d="M936.228,-751.5C944.725,-751.5 953.27,-751.5 961.639,-751.5"/>
<polygon fill="#757575" stroke="#757575" points="961.745,-755 971.745,-751.5 961.745,-748 961.745,-755"/>
</g>
<!-- javascript/draw.js -->
<g id="node9" class="node"><title>javascript/draw.js</title>
<path fill="none" stroke="#c6c5fe" d="M890.333,-683C890.333,-683 781.667,-683 781.667,-683 777.833,-683 774,-679.167 774,-675.333 774,-675.333 774,-667.667 774,-667.667 774,-663.833 777.833,-660 781.667,-660 781.667,-660 890.333,-660 890.333,-660 894.167,-660 898,-663.833 898,-667.667 898,-667.667 898,-675.333 898,-675.333 898,-679.167 894.167,-683 890.333,-683"/>
<text text-anchor="middle" x="836" y="-667.8" font-family="Arial" font-size="14.00" fill="#c6c5fe">javascript/draw.js</text>
</g>
<!-- javascript/draw.js&#45;&gt;javascript/blit.js -->
<g id="edge7" class="edge"><title>javascript/draw.js&#45;&gt;javascript/blit.js</title>
<path fill="none" stroke="#757575" d="M888.167,-659.965C903.711,-655.954 920.717,-651.05 936,-645.5 963.776,-635.413 994.06,-620.897 1015.89,-609.763"/>
<polygon fill="#757575" stroke="#757575" points="1017.71,-612.764 1024.99,-605.068 1014.5,-606.543 1017.71,-612.764"/>
</g>
<!-- javascript/draw.js&#45;&gt;javascript/programs.js -->
<g id="edge10" class="edge"><title>javascript/draw.js&#45;&gt;javascript/programs.js</title>
<path fill="none" stroke="#757575" d="M898.089,-664.334C956.959,-656.222 1047.91,-640.488 1123,-613.5 1153.94,-602.38 1186.85,-583.965 1209.03,-570.464"/>
<polygon fill="#757575" stroke="#757575" points="1210.88,-573.431 1217.55,-565.195 1207.2,-567.477 1210.88,-573.431"/>
</g>
<!-- javascript/draw.js&#45;&gt;javascript/data.js -->
<g id="edge8" class="edge"><title>javascript/draw.js&#45;&gt;javascript/data.js</title>
<path fill="none" stroke="#757575" d="M850.442,-659.972C870.42,-642.463 908.539,-607.588 936,-573.5 977.682,-521.758 1017.03,-453.541 1035.5,-419.966"/>
<polygon fill="#757575" stroke="#757575" points="1038.63,-421.54 1040.34,-411.084 1032.48,-418.189 1038.63,-421.54"/>
</g>
<!-- javascript/draw.js&#45;&gt;javascript/materials.js -->
<g id="edge9" class="edge"><title>javascript/draw.js&#45;&gt;javascript/materials.js</title>
<path fill="none" stroke="#757575" d="M867.463,-683.133C904.262,-697.185 966.262,-720.86 1006.78,-736.333"/>
<polygon fill="#757575" stroke="#757575" points="1005.75,-739.685 1016.34,-739.983 1008.25,-733.146 1005.75,-739.685"/>
</g>
<!-- javascript/materials.js&#45;&gt;javascript/programs.js -->
<g id="edge16" class="edge"><title>javascript/materials.js&#45;&gt;javascript/programs.js</title>
<path fill="none" stroke="#757575" d="M1098.17,-739.974C1107.09,-736.356 1115.81,-731.638 1123,-725.5 1148.71,-703.548 1141.01,-687.116 1159,-658.5 1178.44,-627.593 1203.88,-593.79 1219.96,-573.111"/>
<polygon fill="#757575" stroke="#757575" points="1222.83,-575.13 1226.24,-565.099 1217.32,-570.814 1222.83,-575.13"/>
</g>
<!-- javascript/materials.js&#45;&gt;javascript/shaders.js -->
<g id="edge17" class="edge"><title>javascript/materials.js&#45;&gt;javascript/shaders.js</title>
<path fill="none" stroke="#757575" d="M1086.18,-739.881C1098.14,-735.789 1111.29,-730.859 1123,-725.5 1228.17,-677.359 1344.79,-603.797 1395.54,-570.694"/>
<polygon fill="#757575" stroke="#757575" points="1397.51,-573.591 1403.95,-565.183 1393.67,-567.735 1397.51,-573.591"/>
</g>
<!-- javascript/events.js -->
<g id="node11" class="node"><title>javascript/events.js</title>
<path fill="none" stroke="#c6c5fe" d="M251.333,-255C251.333,-255 130.667,-255 130.667,-255 126.833,-255 123,-251.167 123,-247.333 123,-247.333 123,-239.667 123,-239.667 123,-235.833 126.833,-232 130.667,-232 130.667,-232 251.333,-232 251.333,-232 255.167,-232 259,-235.833 259,-239.667 259,-239.667 259,-247.333 259,-247.333 259,-251.167 255.167,-255 251.333,-255"/>
<text text-anchor="middle" x="191" y="-239.8" font-family="Arial" font-size="14.00" fill="#c6c5fe">javascript/events.js</text>
</g>
<!-- javascript/events.js&#45;&gt;javascript/data.js -->
<g id="edge11" class="edge"><title>javascript/events.js&#45;&gt;javascript/data.js</title>
<path fill="none" stroke="#757575" d="M220.862,-231.922C277.349,-209.956 406.955,-162.962 521,-146.5 599.739,-135.134 621.456,-133.857 700,-146.5 809.065,-164.056 848.961,-156.473 936,-224.5 989.338,-266.187 1024.02,-341.298 1038.61,-378.058"/>
<polygon fill="#757575" stroke="#757575" points="1035.49,-379.68 1042.35,-387.754 1042.02,-377.165 1035.49,-379.68"/>
</g>
<!-- javascript/pointers.js -->
<g id="node12" class="node"><title>javascript/pointers.js</title>
<path fill="none" stroke="#c6c5fe" d="M467.833,-255C467.833,-255 338.167,-255 338.167,-255 334.333,-255 330.5,-251.167 330.5,-247.333 330.5,-247.333 330.5,-239.667 330.5,-239.667 330.5,-235.833 334.333,-232 338.167,-232 338.167,-232 467.833,-232 467.833,-232 471.667,-232 475.5,-235.833 475.5,-239.667 475.5,-239.667 475.5,-247.333 475.5,-247.333 475.5,-251.167 471.667,-255 467.833,-255"/>
<text text-anchor="middle" x="403" y="-239.8" font-family="Arial" font-size="14.00" fill="#c6c5fe">javascript/pointers.js</text>
</g>
<!-- javascript/events.js&#45;&gt;javascript/pointers.js -->
<g id="edge12" class="edge"><title>javascript/events.js&#45;&gt;javascript/pointers.js</title>
<path fill="none" stroke="#757575" d="M259.023,-243.5C278.43,-243.5 299.839,-243.5 320.049,-243.5"/>
<polygon fill="#757575" stroke="#757575" points="320.174,-247 330.174,-243.5 320.174,-240 320.174,-247"/>
</g>
<!-- javascript/update.js -->
<g id="node13" class="node"><title>javascript/update.js</title>
<path fill="none" stroke="#c6c5fe" d="M463.833,-335C463.833,-335 342.167,-335 342.167,-335 338.333,-335 334.5,-331.167 334.5,-327.333 334.5,-327.333 334.5,-319.667 334.5,-319.667 334.5,-315.833 338.333,-312 342.167,-312 342.167,-312 463.833,-312 463.833,-312 467.667,-312 471.5,-315.833 471.5,-319.667 471.5,-319.667 471.5,-327.333 471.5,-327.333 471.5,-331.167 467.667,-335 463.833,-335"/>
<text text-anchor="middle" x="403" y="-319.8" font-family="Arial" font-size="14.00" fill="#c6c5fe">javascript/update.js</text>
</g>
<!-- javascript/events.js&#45;&gt;javascript/update.js -->
<g id="edge13" class="edge"><title>javascript/events.js&#45;&gt;javascript/update.js</title>
<path fill="none" stroke="#757575" d="M222.536,-255.133C259.423,-269.185 321.57,-292.86 362.187,-308.333"/>
<polygon fill="#757575" stroke="#757575" points="361.177,-311.694 371.768,-311.983 363.669,-305.152 361.177,-311.694"/>
</g>
<!-- javascript/updateColors.js -->
<g id="node15" class="node"><title>javascript/updateColors.js</title>
<path fill="none" stroke="#c6c5fe" d="M917.833,-257C917.833,-257 754.167,-257 754.167,-257 750.333,-257 746.5,-253.167 746.5,-249.333 746.5,-249.333 746.5,-241.667 746.5,-241.667 746.5,-237.833 750.333,-234 754.167,-234 754.167,-234 917.833,-234 917.833,-234 921.667,-234 925.5,-237.833 925.5,-241.667 925.5,-241.667 925.5,-249.333 925.5,-249.333 925.5,-253.167 921.667,-257 917.833,-257"/>
<text text-anchor="middle" x="836" y="-241.8" font-family="Arial" font-size="14.00" fill="#c6c5fe">javascript/updateColors.js</text>
</g>
<!-- javascript/pointers.js&#45;&gt;javascript/updateColors.js -->
<g id="edge18" class="edge"><title>javascript/pointers.js&#45;&gt;javascript/updateColors.js</title>
<path fill="none" stroke="#757575" d="M475.655,-243.833C546.93,-244.163 656.842,-244.673 736.343,-245.042"/>
<polygon fill="#757575" stroke="#757575" points="736.355,-248.542 746.372,-245.089 736.388,-241.542 736.355,-248.542"/>
</g>
<!-- javascript/update.js&#45;&gt;javascript/blit.js -->
<g id="edge30" class="edge"><title>javascript/update.js&#45;&gt;javascript/blit.js</title>
<path fill="none" stroke="#757575" d="M413.875,-335.21C450.789,-377.928 586.244,-525.391 736,-573.5 817.48,-599.675 917.03,-601.112 981.077,-598.406"/>
<polygon fill="#757575" stroke="#757575" points="981.61,-601.884 991.435,-597.919 981.281,-594.892 981.61,-601.884"/>
</g>
<!-- javascript/update.js&#45;&gt;javascript/programs.js -->
<g id="edge33" class="edge"><title>javascript/update.js&#45;&gt;javascript/programs.js</title>
<path fill="none" stroke="#757575" d="M424.066,-311.988C446.871,-299.362 485.538,-279.327 521,-267.5 696.907,-208.835 754.858,-184.843 936,-224.5 1025.36,-244.064 1058.23,-245.897 1123,-310.5 1188.36,-375.696 1220.01,-485.964 1230.92,-532.149"/>
<polygon fill="#757575" stroke="#757575" points="1227.53,-532.989 1233.16,-541.965 1234.35,-531.438 1227.53,-532.989"/>
</g>
<!-- javascript/update.js&#45;&gt;javascript/data.js -->
<g id="edge31" class="edge"><title>javascript/update.js&#45;&gt;javascript/data.js</title>
<path fill="none" stroke="#757575" d="M467.036,-335.026C484.482,-338.011 503.446,-341.067 521,-343.5 683.766,-366.061 875.993,-384.464 976.793,-393.484"/>
<polygon fill="#757575" stroke="#757575" points="976.579,-396.978 986.85,-394.38 977.2,-390.006 976.579,-396.978"/>
</g>
<!-- javascript/update.js&#45;&gt;javascript/initBuffers.js -->
<g id="edge32" class="edge"><title>javascript/update.js&#45;&gt;javascript/initBuffers.js</title>
<path fill="none" stroke="#757575" d="M428.788,-335.08C465.432,-352.198 534.168,-384.308 575.494,-403.614"/>
<polygon fill="#757575" stroke="#757575" points="574.082,-406.818 584.624,-407.879 577.045,-400.476 574.082,-406.818"/>
</g>
<!-- javascript/update.js&#45;&gt;javascript/updateColors.js -->
<g id="edge37" class="edge"><title>javascript/update.js&#45;&gt;javascript/updateColors.js</title>
<path fill="none" stroke="#757575" d="M467.596,-311.991C545.82,-297.834 678.378,-273.845 761.065,-258.88"/>
<polygon fill="#757575" stroke="#757575" points="761.927,-262.281 771.144,-257.056 760.68,-255.393 761.927,-262.281"/>
</g>
<!-- javascript/update.js&#45;&gt;javascript/render.js -->
<g id="edge34" class="edge"><title>javascript/update.js&#45;&gt;javascript/render.js</title>
<path fill="none" stroke="#757575" d="M408.507,-335.235C428.647,-387.565 509.902,-597.511 521,-607.5 525.346,-611.412 530.253,-614.737 535.472,-617.563"/>
<polygon fill="#757575" stroke="#757575" points="533.974,-620.726 544.507,-621.863 536.982,-614.405 533.974,-620.726"/>
</g>
<!-- javascript/resizeCanvas.js -->
<g id="node17" class="node"><title>javascript/resizeCanvas.js</title>
<path fill="none" stroke="#cfffac" d="M692.333,-179C692.333,-179 528.667,-179 528.667,-179 524.833,-179 521,-175.167 521,-171.333 521,-171.333 521,-163.667 521,-163.667 521,-159.833 524.833,-156 528.667,-156 528.667,-156 692.333,-156 692.333,-156 696.167,-156 700,-159.833 700,-163.667 700,-163.667 700,-171.333 700,-171.333 700,-175.167 696.167,-179 692.333,-179"/>
<text text-anchor="middle" x="610.5" y="-163.8" font-family="Arial" font-size="14.00" fill="#cfffac">javascript/resizeCanvas.js</text>
</g>
<!-- javascript/update.js&#45;&gt;javascript/resizeCanvas.js -->
<g id="edge35" class="edge"><title>javascript/update.js&#45;&gt;javascript/resizeCanvas.js</title>
<path fill="none" stroke="#757575" d="M424.717,-311.877C442.453,-301.125 467.78,-283.774 485,-263.5 507.648,-236.836 494.036,-215.789 521,-193.5 525.86,-189.483 531.319,-186.086 537.077,-183.214"/>
<polygon fill="#757575" stroke="#757575" points="538.601,-186.367 546.329,-179.119 535.768,-179.966 538.601,-186.367"/>
</g>
<!-- javascript/splats.js -->
<g id="node18" class="node"><title>javascript/splats.js</title>
<path fill="none" stroke="#c6c5fe" d="M668.333,-335C668.333,-335 552.667,-335 552.667,-335 548.833,-335 545,-331.167 545,-327.333 545,-327.333 545,-319.667 545,-319.667 545,-315.833 548.833,-312 552.667,-312 552.667,-312 668.333,-312 668.333,-312 672.167,-312 676,-315.833 676,-319.667 676,-319.667 676,-327.333 676,-327.333 676,-331.167 672.167,-335 668.333,-335"/>
<text text-anchor="middle" x="610.5" y="-319.8" font-family="Arial" font-size="14.00" fill="#c6c5fe">javascript/splats.js</text>
</g>
<!-- javascript/update.js&#45;&gt;javascript/splats.js -->
<g id="edge36" class="edge"><title>javascript/update.js&#45;&gt;javascript/splats.js</title>
<path fill="none" stroke="#757575" d="M471.573,-323.5C491.688,-323.5 513.849,-323.5 534.412,-323.5"/>
<polygon fill="#757575" stroke="#757575" points="534.681,-327 544.681,-323.5 534.681,-320 534.681,-327"/>
</g>
<!-- javascript/updateColors.js&#45;&gt;javascript/data.js -->
<g id="edge38" class="edge"><title>javascript/updateColors.js&#45;&gt;javascript/data.js</title>
<path fill="none" stroke="#757575" d="M856.395,-257.163C876.662,-269.552 909.184,-290.002 936,-309.5 968.295,-332.982 1003.79,-362.624 1025.61,-381.328"/>
<polygon fill="#757575" stroke="#757575" points="1023.41,-384.051 1033.27,-387.925 1027.98,-378.747 1023.41,-384.051"/>
</g>
<!-- javascript/render.js&#45;&gt;javascript/blit.js -->
<g id="edge20" class="edge"><title>javascript/render.js&#45;&gt;javascript/blit.js</title>
<path fill="none" stroke="#757575" d="M678.081,-629.066C743.735,-624.482 846.895,-616.709 936,-607.5 950.691,-605.982 966.451,-604.123 981.335,-602.263"/>
<polygon fill="#757575" stroke="#757575" points="981.995,-605.707 991.476,-600.978 981.115,-598.763 981.995,-605.707"/>
</g>
<!-- javascript/render.js&#45;&gt;javascript/programs.js -->
<g id="edge23" class="edge"><title>javascript/render.js&#45;&gt;javascript/programs.js</title>
<path fill="none" stroke="#757575" d="M629.544,-645.22C652.965,-659.667 695.629,-683.418 736,-692.5 822.722,-712.009 847.784,-703.416 936,-692.5 1021.05,-681.976 1046.44,-683.994 1123,-645.5 1142.82,-635.537 1188.47,-595.867 1215.13,-571.992"/>
<polygon fill="#757575" stroke="#757575" points="1217.66,-574.431 1222.75,-565.14 1212.97,-569.228 1217.66,-574.431"/>
</g>
<!-- javascript/render.js&#45;&gt;javascript/data.js -->
<g id="edge21" class="edge"><title>javascript/render.js&#45;&gt;javascript/data.js</title>
<path fill="none" stroke="#757575" d="M622.23,-621.714C642.349,-600.383 688.055,-555.463 736,-532.5 818,-493.226 854.038,-528.854 936,-489.5 972.984,-471.742 1008.42,-439.23 1028.79,-418.527"/>
<polygon fill="#757575" stroke="#757575" points="1031.41,-420.853 1035.83,-411.226 1026.37,-415.993 1031.41,-420.853"/>
</g>
<!-- javascript/render.js&#45;&gt;javascript/draw.js -->
<g id="edge22" class="edge"><title>javascript/render.js&#45;&gt;javascript/draw.js</title>
<path fill="none" stroke="#757575" d="M678.255,-644.85C705.291,-649.447 736.545,-654.76 763.998,-659.428"/>
<polygon fill="#757575" stroke="#757575" points="763.48,-662.89 773.925,-661.116 764.653,-655.989 763.48,-662.89"/>
</g>
<!-- javascript/splats.js&#45;&gt;javascript/blit.js -->
<g id="edge26" class="edge"><title>javascript/splats.js&#45;&gt;javascript/blit.js</title>
<path fill="none" stroke="#757575" d="M630.191,-335.102C698.933,-377.768 937.933,-526.113 1019.2,-576.557"/>
<polygon fill="#757575" stroke="#757575" points="1017.54,-579.642 1027.88,-581.942 1021.23,-573.694 1017.54,-579.642"/>
</g>
<!-- javascript/splats.js&#45;&gt;javascript/programs.js -->
<g id="edge28" class="edge"><title>javascript/splats.js&#45;&gt;javascript/programs.js</title>
<path fill="none" stroke="#757575" d="M669.128,-311.97C771.851,-294.905 988.419,-275.132 1123,-378.5 1176.97,-419.95 1212.43,-495.173 1227.4,-532.009"/>
<polygon fill="#757575" stroke="#757575" points="1224.31,-533.706 1231.23,-541.726 1230.82,-531.139 1224.31,-533.706"/>
</g>
<!-- javascript/splats.js&#45;&gt;javascript/data.js -->
<g id="edge27" class="edge"><title>javascript/splats.js&#45;&gt;javascript/data.js</title>
<path fill="none" stroke="#757575" d="M676.053,-321.418C742.365,-320.861 848.033,-324.397 936,-347.5 965.474,-355.241 996.684,-370.681 1018.39,-382.735"/>
<polygon fill="#757575" stroke="#757575" points="1016.94,-385.937 1027.37,-387.828 1020.4,-379.849 1016.94,-385.937"/>
</g>
<!-- javascript/splats.js&#45;&gt;javascript/updateColors.js -->
<g id="edge29" class="edge"><title>javascript/splats.js&#45;&gt;javascript/updateColors.js</title>
<path fill="none" stroke="#757575" d="M661.771,-311.94C674.565,-308.138 688.064,-303.348 700,-297.5 717.723,-288.816 718.153,-279.927 736,-271.5 745.719,-266.911 756.372,-263.039 766.975,-259.801"/>
<polygon fill="#757575" stroke="#757575" points="768.032,-263.139 776.67,-257.004 766.092,-256.413 768.032,-263.139"/>
</g>
<!-- javascript/webGLContext.js -->
<g id="node19" class="node"><title>javascript/webGLContext.js</title>
<path fill="none" stroke="#cfffac" d="M277.333,-23C277.333,-23 104.667,-23 104.667,-23 100.833,-23 97,-19.1667 97,-15.3333 97,-15.3333 97,-7.66667 97,-7.66667 97,-3.83333 100.833,-0 104.667,-0 104.667,-0 277.333,-0 277.333,-0 281.167,-0 285,-3.83333 285,-7.66667 285,-7.66667 285,-15.3333 285,-15.3333 285,-19.1667 281.167,-23 277.333,-23"/>
<text text-anchor="middle" x="191" y="-7.8" font-family="Arial" font-size="14.00" fill="#cfffac">javascript/webGLContext.js</text>
</g>
<!-- main.js -->
<g id="node20" class="node"><title>main.js</title>
<path fill="none" stroke="#c6c5fe" d="M53.3333,-255C53.3333,-255 7.66667,-255 7.66667,-255 3.83333,-255 3.55271e-015,-251.167 3.55271e-015,-247.333 3.55271e-015,-247.333 3.55271e-015,-239.667 3.55271e-015,-239.667 3.55271e-015,-235.833 3.83333,-232 7.66667,-232 7.66667,-232 53.3333,-232 53.3333,-232 57.1667,-232 61,-235.833 61,-239.667 61,-239.667 61,-247.333 61,-247.333 61,-251.167 57.1667,-255 53.3333,-255"/>
<text text-anchor="middle" x="30.5" y="-239.8" font-family="Arial" font-size="14.00" fill="#c6c5fe">main.js</text>
</g>
<!-- main.js&#45;&gt;javascript/programs.js -->
<g id="edge44" class="edge"><title>main.js&#45;&gt;javascript/programs.js</title>
<path fill="none" stroke="#757575" d="M43.0478,-231.661C55.4099,-219.579 76.0836,-201.012 97,-189.5 221.977,-120.714 259.344,-89.5 402,-89.5 402,-89.5 402,-89.5 837,-89.5 978.523,-89.5 1029.16,-123.559 1123,-229.5 1204.26,-321.241 1227.58,-474.896 1233.59,-531.609"/>
<polygon fill="#757575" stroke="#757575" points="1230.14,-532.288 1234.6,-541.898 1237.11,-531.604 1230.14,-532.288"/>
</g>
<!-- main.js&#45;&gt;javascript/GUI.js -->
<g id="edge41" class="edge"><title>main.js&#45;&gt;javascript/GUI.js</title>
<path fill="none" stroke="#757575" d="M39.36,-255.005C64.6583,-292.035 144.19,-408.447 176.327,-455.487"/>
<polygon fill="#757575" stroke="#757575" points="173.561,-457.643 182.093,-463.926 179.341,-453.694 173.561,-457.643"/>
</g>
<!-- main.js&#45;&gt;javascript/materials.js -->
<g id="edge43" class="edge"><title>main.js&#45;&gt;javascript/materials.js</title>
<path fill="none" stroke="#757575" d="M32.3007,-255.134C35.3171,-292.535 48.4333,-412.101 97,-495.5 192.059,-658.736 213.103,-791.5 402,-791.5 402,-791.5 402,-791.5 611.5,-791.5 755.969,-791.5 792.625,-790.246 936,-772.5 951.42,-770.591 967.93,-767.84 983.362,-764.955"/>
<polygon fill="#757575" stroke="#757575" points="984.162,-768.366 993.326,-763.047 982.846,-761.491 984.162,-768.366"/>
</g>
<!-- main.js&#45;&gt;javascript/events.js -->
<g id="edge42" class="edge"><title>main.js&#45;&gt;javascript/events.js</title>
<path fill="none" stroke="#757575" d="M61.3126,-243.5C75.9913,-243.5 94.4374,-243.5 112.742,-243.5"/>
<polygon fill="#757575" stroke="#757575" points="112.872,-247 122.871,-243.5 112.871,-240 112.872,-247"/>
</g>
<!-- main.js&#45;&gt;javascript/update.js -->
<g id="edge48" class="edge"><title>main.js&#45;&gt;javascript/update.js</title>
<path fill="none" stroke="#757575" d="M41.6949,-255.404C53.5312,-268.298 74.3469,-288.261 97,-297.5 169.95,-327.252 260.691,-331.265 324.154,-329.372"/>
<polygon fill="#757575" stroke="#757575" points="324.623,-332.858 334.492,-329.004 324.374,-325.862 324.623,-332.858"/>
</g>
<!-- main.js&#45;&gt;javascript/shaders.js -->
<g id="edge46" class="edge"><title>main.js&#45;&gt;javascript/shaders.js</title>
<path fill="none" stroke="#757575" d="M33.0185,-231.79C37.3257,-203.722 52.35,-132.422 97,-98.5 206.212,-15.5278 264.844,-51.5 402,-51.5 402,-51.5 402,-51.5 1048.5,-51.5 1291.57,-51.5 1394.76,-435.405 1416.84,-531.765"/>
<polygon fill="#757575" stroke="#757575" points="1413.43,-532.59 1419.03,-541.586 1420.27,-531.064 1413.43,-532.59"/>
</g>
<!-- main.js&#45;&gt;javascript/resizeCanvas.js -->
<g id="edge45" class="edge"><title>main.js&#45;&gt;javascript/resizeCanvas.js</title>
<path fill="none" stroke="#757575" d="M61.1543,-232.583C72.2647,-228.868 85.0835,-225.022 97,-222.5 238.915,-192.462 406.596,-178.412 510.511,-172.147"/>
<polygon fill="#757575" stroke="#757575" points="510.9,-175.63 520.676,-171.546 510.487,-168.642 510.9,-175.63"/>
</g>
<!-- main.js&#45;&gt;javascript/splats.js -->
<g id="edge47" class="edge"><title>main.js&#45;&gt;javascript/splats.js</title>
<path fill="none" stroke="#757575" d="M61.1831,-253.912C72.2965,-257.451 85.11,-261.111 97,-263.5 266.918,-297.637 313.232,-279.407 485,-302.5 501.551,-304.725 519.278,-307.486 536.015,-310.266"/>
<polygon fill="#757575" stroke="#757575" points="535.846,-313.787 546.288,-311.995 537.008,-306.884 535.846,-313.787"/>
</g>
<!-- main.js&#45;&gt;javascript/webGLContext.js -->
<g id="edge49" class="edge"><title>main.js&#45;&gt;javascript/webGLContext.js</title>
<path fill="none" stroke="#757575" d="M31.5729,-231.988C32.4395,-197.273 39.8952,-92.627 97,-37.5 100.822,-33.8103 105.123,-30.6357 109.725,-27.9052"/>
<polygon fill="#757575" stroke="#757575" points="111.611,-30.871 118.901,-23.1829 108.408,-24.6469 111.611,-30.871"/>
</g>
</g>
</svg>
